<?xml version="1.0" encoding="UTF-8"?>
<!-- Generator: Adobe Illustrator 25.0.1, SVG Export Plug-In . SVG Version: 6.00 Build 0)  -->
<svg xmlns="http://www.w3.org/2000/svg" xmlns:xlink="http://www.w3.org/1999/xlink" version="1.1" id="Layer_1" x="0px" y="0px" viewBox="0 0 385 220.97" style="enable-background:new 0 0 385 220.97;" xml:space="preserve">
<style type="text/css">
	.st0{fill:#FFFFFF;}
	.st1{display:none;}
</style>
<g>
	<g>
		<path class="st0" d="M385,199.49c-128.29,0-256.59,0-385,0c0-59.26,0-118.55,0-178c128.26,0,256.63,0,385,0    C385,80.72,385,140.09,385,199.49z M1.63,110.9c35.4,29.86,72.56,55.19,115.4,71.29c44.93,16.9,90.73,20.79,137.41,8.19    c38.87-10.49,72.66-30.54,103.45-55.93c9.05-7.46,17.68-15.42,26.58-23.21c-0.95-1.13-1.32-1.67-1.78-2.11    c-27.93-26.66-58.56-49.46-94-65.35C238.15,21.13,186.15,16.4,132.67,31.65C95.38,42.28,62.42,61.19,32.21,85.09    C21.84,93.3,11.97,102.15,1.63,110.9z"></path>
		<path d="M1.63,110.9c10.33-8.75,20.2-17.61,30.58-25.82c30.2-23.89,63.17-42.81,100.45-53.44    c53.48-15.25,105.48-10.52,156.03,12.14c35.44,15.88,66.07,38.69,94,65.35c0.46,0.44,0.84,0.98,1.78,2.11    c-8.9,7.8-17.54,15.76-26.58,23.21c-30.8,25.39-64.59,45.43-103.45,55.93c-46.68,12.6-92.48,8.71-137.41-8.19    C74.19,166.09,37.03,140.77,1.63,110.9z M193.37,179.94c38.63,0.02,69.9-31.03,69.94-69.44c0.04-38.43-31.23-69.88-69.56-69.95    c-38.71-0.07-70.15,31.21-70.19,69.83C123.52,148.79,154.77,179.92,193.37,179.94z M251.22,174.5    c42.26-11.34,77.55-34.68,110.13-63.68c-32.37-28.74-67.53-51.39-109.92-64.02C288.78,82.76,287.64,140.14,251.22,174.5z     M133.48,48.34C92.66,60.42,58.04,82.69,25.99,110.52c32.46,25.64,66.55,47.01,105.66,59.72c-15.76-17.47-24.17-37.69-23.83-61.13    C108.16,85.56,117.25,65.5,133.48,48.34z"></path>
		<path class="st0" d="M193.37,179.94c-38.6-0.02-69.84-31.15-69.81-69.56c0.04-38.62,31.48-69.91,70.19-69.83    c38.33,0.07,69.6,31.52,69.56,69.95C263.27,148.91,232,179.96,193.37,179.94z M193.45,126.02c8.84,0,15.87-6.97,15.87-15.73    c0-8.66-7.2-15.83-15.9-15.83c-8.68,0-15.87,7.19-15.88,15.86C177.54,119.03,184.62,126.02,193.45,126.02z"></path>
		<path class="st0" d="M251.22,174.5c36.41-34.37,37.56-91.74,0.21-127.7c42.38,12.63,77.55,35.28,109.92,64.02    C328.78,139.82,293.48,163.16,251.22,174.5z"></path>
		<path class="st0" d="M133.48,48.34c-16.24,17.16-25.32,37.22-25.66,60.77c-0.34,23.45,8.07,43.66,23.83,61.13    c-39.11-12.7-73.19-34.08-105.66-59.72C58.04,82.69,92.66,60.42,133.48,48.34z"></path>
		<path d="M193.45,126.02c-8.83,0-15.91-6.98-15.91-15.7c0-8.67,7.2-15.86,15.88-15.86c8.7,0,15.91,7.18,15.9,15.83    C209.32,119.05,202.29,126.01,193.45,126.02z"></path>
	</g>
</g>
<rect x="186.25" y="-39.51" transform="matrix(0.7071 0.7071 -0.7071 0.7071 134.5069 -103.7576)" class="st1" width="12.5" height="300"></rect>
</svg>
