<?xml version="1.0" encoding="UTF-8"?>
<!-- Generator: Adobe Illustrator 25.0.0, SVG Export Plug-In . SVG Version: 6.00 Build 0)  -->
<svg xmlns="http://www.w3.org/2000/svg" xmlns:xlink="http://www.w3.org/1999/xlink" version="1.1" id="Layer_1" x="0px" y="0px" viewBox="0 0 980 595.7" style="enable-background:new 0 0 980 595.7;" xml:space="preserve">
<g>
	<g transform="translate(0.000000,511.000000) scale(0.100000,-0.100000)">
		<path d="M4201.3,4366.8C2985.2,4195.3,1828,3660.2,681,2730.9c-181.8-146-412.2-340.5-506.9-430.1L0,2139.4l366.1-289.3    C1664.1,823.5,2905.8,214.1,4124.5,1.6c460.8-79.4,1136.7-97.3,1587.3-38.4C6925.4,116.8,8082.6,662.1,9204,1606.9    c481.3,404.5,614.5,532.5,594,565.8c-38.4,64-683.6,611.9-980.5,834.6c-1026.6,770.6-2119.9,1234-3233.6,1372.3    C5289.4,4415.5,4500.9,4407.8,4201.3,4366.8z M3266.9,3606.5c-197.1-215.1-391.7-581.2-476.2-903.8    c-76.8-289.3-76.8-788.6,0-1075.3c92.2-340.5,268.8-675.9,483.9-914c48.7-53.8,74.3-97.3,58.9-97.3c-69.1,0-658,250.9-1001.1,425    c-442.9,225.3-911.5,519.7-1377.4,865.3c-279.1,207.4-335.4,258.6-307.3,284.2c17.9,17.9,166.4,138.2,327.7,268.8    c522.3,417.3,1129.1,796.2,1646.2,1029.2c217.6,97.3,745,297,793.7,299.5C3428.2,3790.8,3361.6,3708.9,3266.9,3606.5z     M6687.3,3714c806.5-279.1,1643.7-780.9,2455.3-1479.8l89.6-76.8l-125.5-110.1C8525.6,1530.1,7734.5,1018.1,7120,759.5    c-222.7-94.8-722-271.4-765.5-271.4c-5.1,0,58.9,71.7,140.8,161.3c271.4,284.2,448,596.6,550.4,978    c76.8,286.7,76.8,786,2.6,1075.3c-84.5,314.9-286.8,696.4-483.9,908.9c-92.2,97.3-151.1,179.2-135.7,179.2    C6446.7,3790.8,6561.9,3754.9,6687.3,3714z M5194.7,2718.1c463.4-235.6,437.8-921.7-46.1-1124c-112.6-46.1-348.2-46.1-460.8,0    c-386.6,161.3-504.4,655.4-235.5,967.8C4641.7,2784.6,4938.7,2848.6,5194.7,2718.1z"></path>
	</g>
</g>
<rect x="468.1" y="-102.1" transform="matrix(0.7071 0.7071 -0.7071 0.7071 353.9388 -258.7464)" width="42.5" height="800"></rect>
</svg>
