<?xml version="1.0" encoding="utf-8"?>
<!-- Generator: Adobe Illustrator 25.0.1, SVG Export Plug-In . SVG Version: 6.00 Build 0)  -->
<svg version="1.1" id="Layer_1" xmlns="http://www.w3.org/2000/svg" xmlns:xlink="http://www.w3.org/1999/xlink" x="0px" y="0px"
	 viewBox="0 0 184.2 53.4" style="enable-background:new 0 0 184.2 53.4;" xml:space="preserve">
<style type="text/css">
	.st0{fill:#333333;stroke:#333333;stroke-miterlimit:10;}
	.st1{fill:#B1D237;}
	.st2{fill:#333333;}
</style>
<g>
	<path class="st0" d="M3.5,5.3H12c1.6,0,3.2,0.3,4.8,0.8s3,1.3,4.3,2.4c1.3,1.1,2.3,2.4,3.1,4s1.2,3.4,1.2,5.6c0,2.1-0.4,4-1.2,5.6
		s-1.8,2.9-3.1,4s-2.7,1.9-4.3,2.4c-1.6,0.5-3.2,0.8-4.8,0.8H3.5V5.3z M6.1,28.4h5.2c1.9,0,3.6-0.3,5-0.9s2.6-1.4,3.5-2.4
		s1.6-2.1,2.1-3.3c0.5-1.2,0.7-2.5,0.7-3.9s-0.2-2.6-0.7-3.9c-0.5-1.2-1.2-2.4-2.1-3.3s-2.1-1.8-3.5-2.4c-1.4-0.6-3.1-0.9-5-0.9H6.1
		V28.4z"/>
	<path class="st0" d="M33.4,28.4H47v2.3H30.8V5.3h15.8v2.3H33.4v8.8h12.4v2.3H33.4V28.4z"/>
	<path class="st1" d="M74.5,30.7l0.1-18h-0.1l-6.6,18h-4.3l-6.4-18H57l0.1,18h-5.8V5.3h8.8l5.8,16.3H66l5.6-16.3h8.9v25.5L74.5,30.7
		L74.5,30.7z"/>
	<path class="st0" d="M86.3,30.7h-2.8l11-25.5H97l10.9,25.5h-2.9l-2.8-6.7H89.1L86.3,30.7z M90.1,21.7h11.2L95.7,8.1L90.1,21.7z"/>
	<path class="st0" d="M130.4,9.9c-0.9-0.9-1.9-1.7-3.2-2.2c-1.2-0.5-2.6-0.8-4.2-0.8c-1.6,0-3.1,0.3-4.4,0.9s-2.4,1.4-3.3,2.4
		s-1.6,2.2-2.1,3.5c-0.5,1.3-0.7,2.8-0.7,4.2c0,1.5,0.2,2.9,0.7,4.2s1.2,2.5,2.1,3.5c0.9,1,2,1.8,3.3,2.4s2.8,0.9,4.4,0.9
		c1.4,0,2.8-0.2,4-0.5c1.2-0.3,2.2-0.7,2.9-1.2v-7.7h-5.9v-2.3h8.5v11.5c-1.4,0.8-2.9,1.5-4.5,1.9s-3.3,0.6-5,0.6
		c-1.9,0-3.7-0.3-5.3-1c-1.6-0.7-3-1.6-4.2-2.8s-2.1-2.6-2.8-4.2s-1-3.4-1-5.4s0.3-3.7,1-5.4c0.7-1.6,1.6-3,2.8-4.2s2.6-2.1,4.2-2.8
		s3.4-1,5.3-1c2,0,3.8,0.3,5.3,0.9c1.5,0.6,2.8,1.5,3.9,2.5L130.4,9.9z"/>
	<path class="st0" d="M158.4,9.9c-0.9-0.9-1.9-1.7-3.2-2.2c-1.2-0.5-2.6-0.8-4.2-0.8c-1.6,0-3.1,0.3-4.4,0.9s-2.4,1.4-3.3,2.4
		s-1.6,2.2-2.1,3.5c-0.5,1.3-0.7,2.8-0.7,4.2c0,1.5,0.2,2.9,0.7,4.2s1.2,2.5,2.1,3.5s2,1.8,3.3,2.4s2.8,0.9,4.4,0.9
		c1.4,0,2.8-0.2,4-0.5c1.2-0.3,2.2-0.7,2.9-1.2v-7.7H152v-2.3h8.5v11.5c-1.4,0.8-2.9,1.5-4.5,1.9s-3.3,0.6-5,0.6
		c-1.9,0-3.7-0.3-5.3-1s-3-1.6-4.2-2.8s-2.1-2.6-2.8-4.2s-1-3.4-1-5.4s0.3-3.7,1-5.4s1.6-3,2.8-4.2c1.2-1.2,2.6-2.1,4.2-2.8
		s3.4-1,5.3-1c2,0,3.8,0.3,5.3,0.9s2.8,1.5,3.9,2.5L158.4,9.9z"/>
	<path class="st0" d="M179.5,9.4c-0.6-0.8-1.3-1.4-2.1-1.8c-0.9-0.5-1.9-0.7-3.1-0.7c-0.6,0-1.3,0.1-1.9,0.3
		c-0.6,0.2-1.2,0.5-1.8,0.9s-0.9,0.9-1.3,1.5c-0.3,0.6-0.5,1.3-0.5,2.1s0.2,1.5,0.5,2c0.3,0.5,0.7,1,1.2,1.4
		c0.5,0.4,1.1,0.7,1.8,0.9c0.7,0.2,1.4,0.5,2.1,0.7c0.9,0.3,1.8,0.6,2.7,0.9c0.9,0.3,1.7,0.8,2.4,1.3c0.7,0.5,1.3,1.2,1.8,2
		c0.4,0.8,0.7,1.9,0.7,3.1s-0.2,2.4-0.7,3.3s-1.1,1.7-1.9,2.3c-0.8,0.6-1.7,1-2.7,1.3c-1,0.3-2,0.4-3,0.4c-0.8,0-1.5-0.1-2.3-0.2
		c-0.8-0.2-1.5-0.4-2.2-0.7c-0.7-0.3-1.3-0.7-1.9-1.2c-0.6-0.5-1.1-1-1.6-1.7l2.2-1.7c0.6,0.9,1.3,1.7,2.3,2.3s2.2,0.9,3.5,0.9
		c0.6,0,1.3-0.1,2-0.3c0.7-0.2,1.3-0.5,1.8-0.9c0.5-0.4,1-0.9,1.3-1.5c0.4-0.6,0.5-1.3,0.5-2.1c0-0.9-0.2-1.6-0.5-2.2
		c-0.4-0.6-0.8-1.1-1.4-1.5s-1.2-0.7-2-1s-1.5-0.5-2.3-0.8c-0.8-0.3-1.7-0.6-2.5-0.9c-0.8-0.3-1.6-0.8-2.2-1.3
		c-0.6-0.5-1.2-1.2-1.6-2c-0.4-0.8-0.6-1.8-0.6-2.9c0-1.2,0.2-2.3,0.7-3.2s1.1-1.6,1.9-2.2s1.7-1,2.6-1.3s1.9-0.4,2.8-0.4
		c1.7,0,3.2,0.3,4.4,0.9c1.2,0.6,2.1,1.3,2.8,2.2L179.5,9.4z"/>
</g>
<g>
	<path class="st2" d="M2.3,47.6h-1v-9.9h6v0.9h-5V42h4.6v0.9H2.3V47.6z"/>
	<path class="st2" d="M12,47.6h-1v-9.9h1V47.6z"/>
	<path class="st2" d="M23.5,46.2L23.5,46.2l0-8.4h1v9.9h-1.3l-5.8-8.5h0v8.5h-1v-9.9h1.3L23.5,46.2z"/>
	<path class="st2" d="M30,46.7h5.3v0.9H29v-9.9h6.1v0.9H30V42h4.8v0.9H30L30,46.7L30,46.7z"/>
	<path class="st2" d="M45.4,47.6h-1v-9.9h1V47.6z"/>
	<path class="st2" d="M56.9,46.2L56.9,46.2l0-8.4h1v9.9h-1.3l-5.8-8.5h0v8.5h-1v-9.9h1.3L56.9,46.2z"/>
	<path class="st2" d="M64.9,44.6h-3.1v-0.8h3.1V44.6z"/>
	<path class="st2" d="M68.7,37.7h1V42h5.4v-4.3h1v9.9h-1v-4.7h-5.4v4.7h-1L68.7,37.7L68.7,37.7z"/>
	<path class="st2" d="M90.4,42.7c0,0.8-0.1,1.5-0.4,2.1c-0.3,0.6-0.6,1.2-1.1,1.7c-0.5,0.5-1,0.8-1.6,1.1s-1.3,0.4-2.1,0.4
		c-0.7,0-1.4-0.1-2.1-0.4s-1.2-0.6-1.6-1.1c-0.5-0.5-0.8-1-1.1-1.7c-0.3-0.6-0.4-1.3-0.4-2.1s0.1-1.5,0.4-2.1s0.6-1.2,1.1-1.7
		c0.5-0.5,1-0.8,1.6-1.1s1.3-0.4,2.1-0.4c0.7,0,1.4,0.1,2.1,0.4s1.2,0.6,1.6,1.1c0.5,0.5,0.8,1,1.1,1.7
		C90.2,41.2,90.4,41.9,90.4,42.7z M89.3,42.7c0-0.6-0.1-1.1-0.3-1.7s-0.5-1-0.8-1.4s-0.8-0.7-1.3-0.9s-1.1-0.3-1.7-0.3
		s-1.2,0.1-1.7,0.3s-0.9,0.5-1.3,0.9c-0.3,0.4-0.6,0.8-0.8,1.4c-0.2,0.5-0.3,1.1-0.3,1.7s0.1,1.1,0.3,1.7s0.5,1,0.8,1.4
		s0.8,0.7,1.3,0.9s1.1,0.3,1.7,0.3c0.6,0,1.2-0.1,1.7-0.3s0.9-0.5,1.3-0.9s0.6-0.8,0.8-1.4C89.2,43.8,89.3,43.2,89.3,42.7z"/>
	<path class="st2" d="M99.2,45.9L99.2,45.9l3.3-8.2h1.5v9.9h-1V39h0l-3.6,8.6h-0.5L95.3,39h0v8.6h-1v-9.9h1.5L99.2,45.9z"/>
	<path class="st2" d="M109.5,46.7h5.3v0.9h-6.3v-9.9h6.2v0.9h-5.1V42h4.8v0.9h-4.8L109.5,46.7L109.5,46.7z"/>
	<path class="st2" d="M123.9,37.7h3.3c0.6,0,1.2,0.1,1.9,0.3c0.6,0.2,1.2,0.5,1.7,0.9c0.5,0.4,0.9,0.9,1.2,1.5
		c0.3,0.6,0.5,1.3,0.5,2.2c0,0.8-0.1,1.5-0.5,2.2c-0.3,0.6-0.7,1.1-1.2,1.5s-1.1,0.7-1.7,0.9c-0.6,0.2-1.2,0.3-1.8,0.3h-3.3
		C123.9,47.6,123.9,37.7,123.9,37.7z M124.9,46.7h2c0.8,0,1.4-0.1,1.9-0.3s1-0.5,1.4-0.9c0.4-0.4,0.6-0.8,0.8-1.3
		c0.2-0.5,0.3-1,0.3-1.5c0-0.5-0.1-1-0.3-1.5c-0.2-0.5-0.4-0.9-0.8-1.3c-0.4-0.4-0.8-0.7-1.4-0.9s-1.2-0.3-1.9-0.3h-2V46.7z"/>
	<path class="st2" d="M137.4,47.6h-1v-9.9h1V47.6z"/>
	<path class="st2" d="M148.8,46.2L148.8,46.2l0-8.4h1v9.9h-1.3l-5.8-8.5h0v8.5h-1v-9.9h1.3L148.8,46.2z"/>
	<path class="st2" d="M155.3,47.6h-1v-9.9h1V47.6z"/>
	<path class="st2" d="M166.8,46.2L166.8,46.2l0-8.4h1v9.9h-1.3l-5.8-8.5h0v8.5h-1v-9.9h1.3L166.8,46.2z"/>
	<path class="st2" d="M179.8,39.5c-0.4-0.4-0.8-0.7-1.2-0.8c-0.5-0.2-1-0.3-1.6-0.3c-0.6,0-1.2,0.1-1.7,0.3s-0.9,0.5-1.3,0.9
		s-0.6,0.8-0.8,1.4c-0.2,0.5-0.3,1.1-0.3,1.7s0.1,1.1,0.3,1.7c0.2,0.5,0.5,1,0.8,1.4c0.4,0.4,0.8,0.7,1.3,0.9s1.1,0.3,1.7,0.3
		c0.6,0,1.1-0.1,1.5-0.2c0.5-0.1,0.8-0.3,1.1-0.5v-3h-2.3v-0.9h3.3v4.5c-0.5,0.3-1.1,0.6-1.8,0.7s-1.3,0.2-1.9,0.2
		c-0.8,0-1.4-0.1-2.1-0.4s-1.2-0.6-1.6-1.1c-0.5-0.5-0.8-1-1.1-1.7c-0.3-0.6-0.4-1.3-0.4-2.1s0.1-1.5,0.4-2.1
		c0.3-0.6,0.6-1.2,1.1-1.7s1-0.8,1.6-1.1c0.6-0.3,1.3-0.4,2.1-0.4c0.8,0,1.5,0.1,2.1,0.4c0.6,0.2,1.1,0.6,1.5,1L179.8,39.5z"/>
</g>
</svg>
