<?xml version="1.0" encoding="UTF-8"?>
<!-- Generator: Adobe Illustrator 24.1.2, SVG Export Plug-In . SVG Version: 6.00 Build 0)  -->
<svg xmlns="http://www.w3.org/2000/svg" xmlns:xlink="http://www.w3.org/1999/xlink" version="1.1" id="Layer_1" x="0px" y="0px" viewBox="0 0 184.2 53.38" style="enable-background:new 0 0 184.2 53.38;" xml:space="preserve">
<style type="text/css">
	.st0{fill:#FFFFFF;}
	.st1{fill:#B1D237;}
</style>
<g>
	<path class="st0" d="M3.54,5.26H12c1.58,0,3.17,0.26,4.77,0.79s3.04,1.33,4.32,2.39c1.28,1.07,2.32,2.4,3.11,4   c0.79,1.6,1.19,3.45,1.19,5.56c0,2.14-0.4,4-1.19,5.58s-1.83,2.91-3.11,3.98c-1.28,1.07-2.72,1.87-4.32,2.39   c-1.6,0.53-3.19,0.79-4.77,0.79H3.54V5.26z M6.13,28.44h5.15c1.92,0,3.59-0.3,5.02-0.9c1.43-0.6,2.61-1.39,3.55-2.36   s1.64-2.08,2.11-3.33c0.47-1.25,0.7-2.53,0.7-3.85c0-1.32-0.23-2.6-0.7-3.85c-0.47-1.25-1.17-2.36-2.11-3.33   c-0.94-0.97-2.12-1.76-3.55-2.36c-1.43-0.6-3.1-0.9-5.02-0.9H6.13V28.44z"></path>
	<path class="st0" d="M33.38,28.44h13.64v2.3H30.79V5.26h15.8v2.3H33.38v8.75h12.35v2.3H33.38V28.44z"></path>
	<path class="st1" d="M74.46,30.74l0.14-18.04h-0.11l-6.62,18.04h-4.32l-6.44-18.04H57l0.14,18.04h-5.8V5.26h8.76l5.8,16.34h0.14   L71.6,5.26h8.9v25.49H74.46z"></path>
	<path class="st0" d="M86.3,30.74h-2.84L94.47,5.26h2.52l10.94,25.49h-2.88l-2.81-6.7H89.07L86.3,30.74z M90.05,21.67h11.23   L95.66,8.14L90.05,21.67z"></path>
	<path class="st0" d="M130.37,9.86c-0.89-0.94-1.94-1.66-3.17-2.18c-1.22-0.52-2.63-0.77-4.21-0.77c-1.63,0-3.1,0.3-4.41,0.9   s-2.42,1.41-3.33,2.43c-0.91,1.02-1.61,2.2-2.11,3.54c-0.49,1.34-0.74,2.76-0.74,4.24c0,1.49,0.25,2.9,0.74,4.24   c0.49,1.34,1.19,2.52,2.11,3.52c0.91,1.01,2.02,1.81,3.33,2.41s2.78,0.9,4.41,0.9c1.44,0,2.76-0.16,3.96-0.47   c1.2-0.31,2.17-0.71,2.92-1.19v-7.74h-5.94v-2.3h8.53V28.9c-1.39,0.84-2.89,1.47-4.5,1.88c-1.61,0.41-3.28,0.61-5,0.61   c-1.92,0-3.7-0.34-5.33-1.01c-1.63-0.67-3.04-1.6-4.21-2.79s-2.09-2.6-2.75-4.23c-0.66-1.63-0.99-3.42-0.99-5.36   c0-1.94,0.34-3.73,1.01-5.36c0.67-1.63,1.6-3.04,2.79-4.23s2.59-2.12,4.21-2.79s3.38-1.01,5.27-1.01c2.04,0,3.82,0.31,5.33,0.92   c1.51,0.61,2.81,1.46,3.89,2.54L130.37,9.86z"></path>
	<path class="st0" d="M158.41,9.86c-0.89-0.94-1.94-1.66-3.17-2.18c-1.22-0.52-2.63-0.77-4.21-0.77c-1.63,0-3.1,0.3-4.41,0.9   c-1.31,0.6-2.42,1.41-3.33,2.43c-0.91,1.02-1.61,2.2-2.11,3.54c-0.49,1.34-0.74,2.76-0.74,4.24c0,1.49,0.25,2.9,0.74,4.24   c0.49,1.34,1.19,2.52,2.11,3.52s2.02,1.81,3.33,2.41c1.31,0.6,2.78,0.9,4.41,0.9c1.44,0,2.76-0.16,3.96-0.47   c1.2-0.31,2.17-0.71,2.92-1.19v-7.74h-5.94v-2.3h8.53V28.9c-1.39,0.84-2.89,1.47-4.5,1.88c-1.61,0.41-3.28,0.61-5,0.61   c-1.92,0-3.7-0.34-5.33-1.01c-1.63-0.67-3.04-1.6-4.21-2.79s-2.09-2.6-2.75-4.23c-0.66-1.63-0.99-3.42-0.99-5.36   c0-1.94,0.34-3.73,1.01-5.36c0.67-1.63,1.6-3.04,2.79-4.23c1.19-1.19,2.59-2.12,4.21-2.79s3.38-1.01,5.27-1.01   c2.04,0,3.82,0.31,5.33,0.92c1.51,0.61,2.81,1.46,3.89,2.54L158.41,9.86z"></path>
	<path class="st0" d="M179.47,9.36c-0.55-0.77-1.26-1.39-2.12-1.85c-0.86-0.47-1.91-0.7-3.13-0.7c-0.62,0-1.26,0.1-1.91,0.29   c-0.65,0.19-1.24,0.49-1.76,0.88s-0.95,0.89-1.28,1.49c-0.32,0.6-0.49,1.31-0.49,2.12s0.16,1.49,0.47,2.02   c0.31,0.53,0.72,0.98,1.24,1.35c0.51,0.37,1.1,0.68,1.76,0.92c0.66,0.24,1.35,0.48,2.06,0.72c0.89,0.29,1.78,0.6,2.67,0.94   c0.9,0.34,1.71,0.77,2.42,1.31c0.72,0.54,1.3,1.22,1.76,2.05c0.45,0.83,0.68,1.88,0.68,3.15s-0.24,2.37-0.73,3.29   s-1.12,1.69-1.89,2.29c-0.78,0.6-1.66,1.04-2.66,1.33c-1,0.29-2,0.43-3.01,0.43c-0.77,0-1.54-0.08-2.3-0.23   c-0.77-0.16-1.5-0.39-2.2-0.7c-0.7-0.31-1.34-0.71-1.94-1.19c-0.6-0.48-1.13-1.03-1.58-1.66l2.23-1.66   c0.55,0.91,1.33,1.67,2.32,2.29s2.17,0.92,3.51,0.92c0.65,0,1.31-0.1,1.98-0.31c0.67-0.2,1.28-0.52,1.82-0.94   c0.54-0.42,0.98-0.94,1.33-1.55c0.35-0.61,0.52-1.33,0.52-2.14c0-0.89-0.17-1.63-0.52-2.21c-0.35-0.59-0.81-1.08-1.39-1.48   c-0.58-0.4-1.24-0.73-1.98-0.99s-1.52-0.53-2.34-0.79c-0.84-0.26-1.67-0.56-2.48-0.9c-0.82-0.34-1.55-0.77-2.2-1.31   c-0.65-0.54-1.17-1.21-1.57-2c-0.4-0.79-0.59-1.76-0.59-2.92c0-1.22,0.25-2.28,0.74-3.17c0.49-0.89,1.13-1.62,1.93-2.2   s1.67-1,2.63-1.26c0.96-0.26,1.91-0.4,2.84-0.4c1.73,0,3.2,0.31,4.43,0.92c1.22,0.61,2.15,1.34,2.77,2.18L179.47,9.36z"></path>
</g>
<g>
	<path class="st0" d="M2.32,47.62H1.32v-9.91h5.98v0.9H2.32v3.43h4.62v0.9H2.32V47.62z"></path>
	<path class="st0" d="M12.01,47.62H11v-9.91h1.01V47.62z"></path>
	<path class="st0" d="M23.49,46.15h0.03v-8.44h1.01v9.91h-1.26L17.5,39.1h-0.03v8.53h-1.01v-9.91h1.26L23.49,46.15z"></path>
	<path class="st0" d="M29.99,46.73h5.31v0.9h-6.31v-9.91h6.15v0.9h-5.14v3.4h4.8v0.9h-4.8V46.73z"></path>
	<path class="st0" d="M45.42,47.62h-1.01v-9.91h1.01V47.62z"></path>
	<path class="st0" d="M56.9,46.15h0.03v-8.44h1.01v9.91h-1.26L50.9,39.1h-0.03v8.53h-1.01v-9.91h1.26L56.9,46.15z"></path>
	<path class="st0" d="M64.88,44.63h-3.14v-0.8h3.14V44.63z"></path>
	<path class="st0" d="M68.68,37.71h1.01v4.3h5.4v-4.3h1.01v9.91H75.1v-4.69h-5.4v4.69h-1.01V37.71z"></path>
	<path class="st0" d="M90.36,42.67c0,0.76-0.13,1.45-0.39,2.09c-0.26,0.63-0.62,1.18-1.08,1.65c-0.46,0.46-1.01,0.82-1.64,1.08   s-1.31,0.39-2.05,0.39c-0.74,0-1.42-0.13-2.05-0.39s-1.18-0.62-1.64-1.08c-0.46-0.46-0.82-1.01-1.09-1.65   c-0.26-0.63-0.39-1.33-0.39-2.09s0.13-1.45,0.39-2.09s0.62-1.18,1.09-1.65c0.46-0.46,1.01-0.82,1.64-1.08s1.31-0.39,2.05-0.39   c0.74,0,1.42,0.13,2.05,0.39s1.18,0.62,1.64,1.08c0.46,0.46,0.82,1.01,1.08,1.65C90.22,41.22,90.36,41.91,90.36,42.67z    M89.29,42.68c0-0.58-0.09-1.13-0.28-1.65c-0.19-0.52-0.46-0.98-0.81-1.38c-0.35-0.4-0.79-0.71-1.29-0.94s-1.08-0.35-1.71-0.35   c-0.63,0-1.21,0.12-1.72,0.35s-0.94,0.55-1.29,0.94c-0.35,0.4-0.63,0.85-0.81,1.38c-0.19,0.52-0.28,1.07-0.28,1.65   c0,0.58,0.09,1.13,0.28,1.65c0.19,0.52,0.46,0.98,0.81,1.37c0.35,0.39,0.79,0.7,1.29,0.94s1.08,0.35,1.72,0.35   c0.63,0,1.21-0.12,1.71-0.35s0.94-0.55,1.29-0.94c0.35-0.39,0.62-0.85,0.81-1.37C89.2,43.8,89.29,43.25,89.29,42.68z"></path>
	<path class="st0" d="M99.17,45.92h0.01l3.32-8.2h1.54v9.91h-1.01v-8.61h-0.03l-3.58,8.61H98.9l-3.58-8.61h-0.03v8.61h-1.01v-9.91   h1.54L99.17,45.92z"></path>
	<path class="st0" d="M109.51,46.73h5.31v0.9h-6.31v-9.91h6.15v0.9h-5.14v3.4h4.8v0.9h-4.8V46.73z"></path>
	<path class="st0" d="M123.93,37.71h3.29c0.62,0,1.23,0.1,1.85,0.31c0.62,0.21,1.18,0.52,1.68,0.93c0.5,0.42,0.9,0.93,1.21,1.55   c0.31,0.62,0.46,1.34,0.46,2.16c0,0.83-0.15,1.55-0.46,2.17c-0.31,0.62-0.71,1.13-1.21,1.55c-0.5,0.42-1.06,0.73-1.68,0.93   c-0.62,0.21-1.24,0.31-1.85,0.31h-3.29V37.71z M124.94,46.73h2c0.75,0,1.4-0.12,1.95-0.35c0.55-0.23,1.02-0.54,1.38-0.92   c0.37-0.38,0.64-0.81,0.82-1.29c0.18-0.49,0.27-0.98,0.27-1.5c0-0.51-0.09-1.01-0.27-1.5c-0.18-0.48-0.45-0.92-0.82-1.29   c-0.36-0.38-0.82-0.68-1.38-0.92s-1.21-0.35-1.95-0.35h-2V46.73z"></path>
	<path class="st0" d="M137.35,47.62h-1.01v-9.91h1.01V47.62z"></path>
	<path class="st0" d="M148.83,46.15h0.03v-8.44h1.01v9.91h-1.26l-5.77-8.53h-0.03v8.53h-1.01v-9.91h1.26L148.83,46.15z"></path>
	<path class="st0" d="M155.33,47.62h-1.01v-9.91h1.01V47.62z"></path>
	<path class="st0" d="M166.81,46.15h0.03v-8.44h1.01v9.91h-1.26l-5.77-8.53h-0.03v8.53h-1.01v-9.91h1.26L166.81,46.15z"></path>
	<path class="st0" d="M179.81,39.5c-0.35-0.36-0.76-0.65-1.23-0.85c-0.48-0.2-1.02-0.3-1.64-0.3c-0.63,0-1.21,0.12-1.71,0.35   s-0.94,0.55-1.29,0.94s-0.63,0.85-0.82,1.38c-0.19,0.52-0.29,1.07-0.29,1.65c0,0.58,0.1,1.13,0.29,1.65   c0.19,0.52,0.46,0.98,0.82,1.37c0.35,0.39,0.79,0.7,1.29,0.94s1.08,0.35,1.71,0.35c0.56,0,1.07-0.06,1.54-0.18   c0.47-0.12,0.84-0.27,1.13-0.46v-3.01h-2.31v-0.9h3.32v4.48c-0.54,0.33-1.12,0.57-1.75,0.73c-0.63,0.16-1.27,0.24-1.95,0.24   c-0.75,0-1.44-0.13-2.07-0.39s-1.18-0.62-1.64-1.08c-0.46-0.46-0.81-1.01-1.07-1.65c-0.26-0.63-0.38-1.33-0.38-2.09   s0.13-1.45,0.39-2.09c0.26-0.63,0.62-1.18,1.08-1.65s1.01-0.82,1.64-1.08c0.63-0.26,1.31-0.39,2.05-0.39   c0.79,0,1.48,0.12,2.07,0.36c0.59,0.24,1.09,0.57,1.51,0.99L179.81,39.5z"></path>
</g>
</svg>
