<?xml version="1.0" encoding="UTF-8"?>
<!-- Generator: Adobe Illustrator 24.1.2, SVG Export Plug-In . SVG Version: 6.00 Build 0)  -->
<svg xmlns="http://www.w3.org/2000/svg" xmlns:xlink="http://www.w3.org/1999/xlink" version="1.1" id="Layer_1" x="0px" y="0px" viewBox="0 0 178.31 26.78" style="enable-background:new 0 0 178.31 26.78;" xml:space="preserve">
<style type="text/css">
	.st0{fill:#FFFFFF;}
	.st1{fill:#B1D237;}
</style>
<path class="st0" d="M0,0.65h8.46c1.58,0,3.17,0.26,4.77,0.79s3.04,1.33,4.32,2.39c1.28,1.07,2.32,2.4,3.11,4  c0.79,1.6,1.19,3.45,1.19,5.56c0,2.14-0.4,4-1.19,5.58s-1.83,2.91-3.11,3.98c-1.28,1.07-2.72,1.87-4.32,2.39  c-1.6,0.53-3.19,0.79-4.77,0.79H0V0.65z M2.59,23.83h5.15c1.92,0,3.59-0.3,5.02-0.9c1.43-0.6,2.61-1.39,3.55-2.36  s1.64-2.08,2.11-3.33c0.47-1.25,0.7-2.53,0.7-3.85c0-1.32-0.23-2.6-0.7-3.85c-0.47-1.25-1.17-2.36-2.11-3.33  c-0.94-0.97-2.12-1.76-3.55-2.36c-1.43-0.6-3.1-0.9-5.02-0.9H2.59V23.83z"></path>
<path class="st0" d="M29.84,23.83h13.64v2.3H27.25V0.65h15.8v2.3H29.84v8.75h12.35V14H29.84V23.83z"></path>
<path class="st1" d="M70.92,26.14L71.06,8.1h-0.11l-6.62,18.04h-4.32L53.57,8.1h-0.11l0.14,18.04h-5.8V0.65h8.76l5.8,16.34h0.14  l5.55-16.34h8.9v25.49H70.92z"></path>
<path class="st0" d="M82.76,26.14h-2.84L90.94,0.65h2.52l10.94,25.49h-2.88l-2.81-6.7H85.54L82.76,26.14z M86.51,17.06h11.23  L92.12,3.53L86.51,17.06z"></path>
<path class="st0" d="M126.83,5.26c-0.89-0.94-1.94-1.66-3.17-2.18c-1.22-0.52-2.63-0.77-4.21-0.77c-1.63,0-3.1,0.3-4.41,0.9  s-2.42,1.41-3.33,2.43c-0.91,1.02-1.61,2.2-2.11,3.54c-0.49,1.34-0.74,2.76-0.74,4.24c0,1.49,0.25,2.9,0.74,4.24  c0.49,1.34,1.19,2.52,2.11,3.52c0.91,1.01,2.02,1.81,3.33,2.41s2.78,0.9,4.41,0.9c1.44,0,2.76-0.16,3.96-0.47  c1.2-0.31,2.17-0.71,2.92-1.19v-7.74h-5.94v-2.3h8.53v11.51c-1.39,0.84-2.89,1.47-4.5,1.88c-1.61,0.41-3.28,0.61-5,0.61  c-1.92,0-3.7-0.34-5.33-1.01c-1.63-0.67-3.04-1.6-4.21-2.79s-2.09-2.6-2.75-4.23c-0.66-1.63-0.99-3.42-0.99-5.36  c0-1.94,0.34-3.73,1.01-5.36c0.67-1.63,1.6-3.04,2.79-4.23s2.59-2.12,4.21-2.79S117.52,0,119.41,0c2.04,0,3.82,0.31,5.33,0.92  c1.51,0.61,2.81,1.46,3.89,2.54L126.83,5.26z"></path>
<path class="st0" d="M154.87,5.26c-0.89-0.94-1.94-1.66-3.17-2.18c-1.22-0.52-2.63-0.77-4.21-0.77c-1.63,0-3.1,0.3-4.41,0.9  c-1.31,0.6-2.42,1.41-3.33,2.43c-0.91,1.02-1.61,2.2-2.11,3.54c-0.49,1.34-0.74,2.76-0.74,4.24c0,1.49,0.25,2.9,0.74,4.24  c0.49,1.34,1.19,2.52,2.11,3.52s2.02,1.81,3.33,2.41c1.31,0.6,2.78,0.9,4.41,0.9c1.44,0,2.76-0.16,3.96-0.47  c1.2-0.31,2.17-0.71,2.92-1.19v-7.74h-5.94v-2.3h8.53v11.51c-1.39,0.84-2.89,1.47-4.5,1.88c-1.61,0.41-3.28,0.61-5,0.61  c-1.92,0-3.7-0.34-5.33-1.01c-1.63-0.67-3.04-1.6-4.21-2.79s-2.09-2.6-2.75-4.23c-0.66-1.63-0.99-3.42-0.99-5.36  c0-1.94,0.34-3.73,1.01-5.36c0.67-1.63,1.6-3.04,2.79-4.23c1.19-1.19,2.59-2.12,4.21-2.79S145.56,0,147.46,0  c2.04,0,3.82,0.31,5.33,0.92c1.51,0.61,2.81,1.46,3.89,2.54L154.87,5.26z"></path>
<path class="st0" d="M175.93,4.75c-0.55-0.77-1.26-1.39-2.12-1.85c-0.86-0.47-1.91-0.7-3.13-0.7c-0.62,0-1.26,0.1-1.91,0.29  c-0.65,0.19-1.24,0.49-1.76,0.88s-0.95,0.89-1.28,1.49c-0.32,0.6-0.49,1.31-0.49,2.12s0.16,1.49,0.47,2.02  c0.31,0.53,0.72,0.98,1.24,1.35c0.51,0.37,1.1,0.68,1.76,0.92c0.66,0.24,1.35,0.48,2.06,0.72c0.89,0.29,1.78,0.6,2.67,0.94  c0.9,0.34,1.71,0.77,2.42,1.31c0.72,0.54,1.3,1.22,1.76,2.05c0.45,0.83,0.68,1.88,0.68,3.15s-0.24,2.37-0.73,3.29  s-1.12,1.69-1.89,2.29c-0.78,0.6-1.66,1.04-2.66,1.33c-1,0.29-2,0.43-3.01,0.43c-0.77,0-1.54-0.08-2.3-0.23  c-0.77-0.16-1.5-0.39-2.2-0.7c-0.7-0.31-1.34-0.71-1.94-1.19c-0.6-0.48-1.13-1.03-1.58-1.66l2.23-1.66  c0.55,0.91,1.33,1.67,2.32,2.29s2.17,0.92,3.51,0.92c0.65,0,1.31-0.1,1.98-0.31c0.67-0.2,1.28-0.52,1.82-0.94  c0.54-0.42,0.98-0.94,1.33-1.55c0.35-0.61,0.52-1.33,0.52-2.14c0-0.89-0.17-1.63-0.52-2.21c-0.35-0.59-0.81-1.08-1.39-1.48  c-0.58-0.4-1.24-0.73-1.98-0.99s-1.52-0.53-2.34-0.79c-0.84-0.26-1.67-0.56-2.48-0.9c-0.82-0.34-1.55-0.77-2.2-1.31  c-0.65-0.54-1.17-1.21-1.57-2c-0.4-0.79-0.59-1.76-0.59-2.92c0-1.22,0.25-2.28,0.74-3.17c0.49-0.89,1.13-1.62,1.93-2.2  s1.67-1,2.63-1.26c0.96-0.26,1.91-0.4,2.84-0.4c1.73,0,3.2,0.31,4.43,0.92c1.22,0.61,2.15,1.34,2.77,2.18L175.93,4.75z"></path>
<path class="st0" d="M0,0.65h8.46c1.58,0,3.17,0.26,4.77,0.79s3.04,1.33,4.32,2.39c1.28,1.07,2.32,2.4,3.11,4  c0.79,1.6,1.19,3.45,1.19,5.56c0,2.14-0.4,4-1.19,5.58s-1.83,2.91-3.11,3.98c-1.28,1.07-2.72,1.87-4.32,2.39  c-1.6,0.53-3.19,0.79-4.77,0.79H0V0.65z M2.59,23.83h5.15c1.92,0,3.59-0.3,5.02-0.9c1.43-0.6,2.61-1.39,3.55-2.36  s1.64-2.08,2.11-3.33c0.47-1.25,0.7-2.53,0.7-3.85c0-1.32-0.23-2.6-0.7-3.85c-0.47-1.25-1.17-2.36-2.11-3.33  c-0.94-0.97-2.12-1.76-3.55-2.36c-1.43-0.6-3.1-0.9-5.02-0.9H2.59V23.83z"></path>
<path class="st0" d="M29.84,23.83h13.64v2.3H27.25V0.65h15.8v2.3H29.84v8.75h12.35V14H29.84V23.83z"></path>
<path class="st1" d="M70.92,26.14L71.06,8.1h-0.11l-6.62,18.04h-4.32L53.57,8.1h-0.11l0.14,18.04h-5.8V0.65h8.76l5.8,16.34h0.14  l5.55-16.34h8.9v25.49H70.92z"></path>
<path class="st0" d="M82.76,26.14h-2.84L90.94,0.65h2.52l10.94,25.49h-2.88l-2.81-6.7H85.54L82.76,26.14z M86.51,17.06h11.23  L92.12,3.53L86.51,17.06z"></path>
<path class="st0" d="M126.83,5.26c-0.89-0.94-1.94-1.66-3.17-2.18c-1.22-0.52-2.63-0.77-4.21-0.77c-1.63,0-3.1,0.3-4.41,0.9  s-2.42,1.41-3.33,2.43c-0.91,1.02-1.61,2.2-2.11,3.54c-0.49,1.34-0.74,2.76-0.74,4.24c0,1.49,0.25,2.9,0.74,4.24  c0.49,1.34,1.19,2.52,2.11,3.52c0.91,1.01,2.02,1.81,3.33,2.41s2.78,0.9,4.41,0.9c1.44,0,2.76-0.16,3.96-0.47  c1.2-0.31,2.17-0.71,2.92-1.19v-7.74h-5.94v-2.3h8.53v11.51c-1.39,0.84-2.89,1.47-4.5,1.88c-1.61,0.41-3.28,0.61-5,0.61  c-1.92,0-3.7-0.34-5.33-1.01c-1.63-0.67-3.04-1.6-4.21-2.79s-2.09-2.6-2.75-4.23c-0.66-1.63-0.99-3.42-0.99-5.36  c0-1.94,0.34-3.73,1.01-5.36c0.67-1.63,1.6-3.04,2.79-4.23s2.59-2.12,4.21-2.79S117.52,0,119.41,0c2.04,0,3.82,0.31,5.33,0.92  c1.51,0.61,2.81,1.46,3.89,2.54L126.83,5.26z"></path>
<path class="st0" d="M154.87,5.26c-0.89-0.94-1.94-1.66-3.17-2.18c-1.22-0.52-2.63-0.77-4.21-0.77c-1.63,0-3.1,0.3-4.41,0.9  c-1.31,0.6-2.42,1.41-3.33,2.43c-0.91,1.02-1.61,2.2-2.11,3.54c-0.49,1.34-0.74,2.76-0.74,4.24c0,1.49,0.25,2.9,0.74,4.24  c0.49,1.34,1.19,2.52,2.11,3.52s2.02,1.81,3.33,2.41c1.31,0.6,2.78,0.9,4.41,0.9c1.44,0,2.76-0.16,3.96-0.47  c1.2-0.31,2.17-0.71,2.92-1.19v-7.74h-5.94v-2.3h8.53v11.51c-1.39,0.84-2.89,1.47-4.5,1.88c-1.61,0.41-3.28,0.61-5,0.61  c-1.92,0-3.7-0.34-5.33-1.01c-1.63-0.67-3.04-1.6-4.21-2.79s-2.09-2.6-2.75-4.23c-0.66-1.63-0.99-3.42-0.99-5.36  c0-1.94,0.34-3.73,1.01-5.36c0.67-1.63,1.6-3.04,2.79-4.23c1.19-1.19,2.59-2.12,4.21-2.79S145.56,0,147.46,0  c2.04,0,3.82,0.31,5.33,0.92c1.51,0.61,2.81,1.46,3.89,2.54L154.87,5.26z"></path>
<path class="st0" d="M175.93,4.75c-0.55-0.77-1.26-1.39-2.12-1.85c-0.86-0.47-1.91-0.7-3.13-0.7c-0.62,0-1.26,0.1-1.91,0.29  c-0.65,0.19-1.24,0.49-1.76,0.88s-0.95,0.89-1.28,1.49c-0.32,0.6-0.49,1.31-0.49,2.12s0.16,1.49,0.47,2.02  c0.31,0.53,0.72,0.98,1.24,1.35c0.51,0.37,1.1,0.68,1.76,0.92c0.66,0.24,1.35,0.48,2.06,0.72c0.89,0.29,1.78,0.6,2.67,0.94  c0.9,0.34,1.71,0.77,2.42,1.31c0.72,0.54,1.3,1.22,1.76,2.05c0.45,0.83,0.68,1.88,0.68,3.15s-0.24,2.37-0.73,3.29  s-1.12,1.69-1.89,2.29c-0.78,0.6-1.66,1.04-2.66,1.33c-1,0.29-2,0.43-3.01,0.43c-0.77,0-1.54-0.08-2.3-0.23  c-0.77-0.16-1.5-0.39-2.2-0.7c-0.7-0.31-1.34-0.71-1.94-1.19c-0.6-0.48-1.13-1.03-1.58-1.66l2.23-1.66  c0.55,0.91,1.33,1.67,2.32,2.29s2.17,0.92,3.51,0.92c0.65,0,1.31-0.1,1.98-0.31c0.67-0.2,1.28-0.52,1.82-0.94  c0.54-0.42,0.98-0.94,1.33-1.55c0.35-0.61,0.52-1.33,0.52-2.14c0-0.89-0.17-1.63-0.52-2.21c-0.35-0.59-0.81-1.08-1.39-1.48  c-0.58-0.4-1.24-0.73-1.98-0.99s-1.52-0.53-2.34-0.79c-0.84-0.26-1.67-0.56-2.48-0.9c-0.82-0.34-1.55-0.77-2.2-1.31  c-0.65-0.54-1.17-1.21-1.57-2c-0.4-0.79-0.59-1.76-0.59-2.92c0-1.22,0.25-2.28,0.74-3.17c0.49-0.89,1.13-1.62,1.93-2.2  s1.67-1,2.63-1.26c0.96-0.26,1.91-0.4,2.84-0.4c1.73,0,3.2,0.31,4.43,0.92c1.22,0.61,2.15,1.34,2.77,2.18L175.93,4.75z"></path>
</svg>
