<?xml version="1.0" encoding="utf-8"?>
<!-- Generator: Adobe Illustrator 22.1.0, SVG Export Plug-In . SVG Version: 6.00 Build 0)  -->
<svg version="1.1" id="Layer_1" xmlns="http://www.w3.org/2000/svg" xmlns:xlink="http://www.w3.org/1999/xlink" x="0px" y="0px"
	 viewBox="0 0 400 400" style="enable-background:new 0 0 400 400;" xml:space="preserve">
<style type="text/css">
	.st0{fill:#CCCCCC;}
</style>
<g>
	<g>
		<g>
			<path class="st0" d="M337.9,182.5H62.1c-6.7,0-12.1,7.8-12.1,17.5c0,9.6,5.4,17.5,12.1,17.5h275.8c6.7,0,12.1-7.8,12.1-17.5
				C350,190.4,344.6,182.5,337.9,182.5z"/>
		</g>
	</g>
	<g>
		<g>
			<path class="st0" d="M337.9,50H62.1C55.4,50,50,57.8,50,67.5s5.4,17.5,12.1,17.5h275.8c6.7,0,12.1-7.8,12.1-17.5
				S344.6,50,337.9,50z"/>
		</g>
	</g>
	<g>
		<g>
			<path class="st0" d="M337.9,315.1H62.1c-6.7,0-12.1,7.8-12.1,17.5S55.4,350,62.1,350h275.8c6.7,0,12.1-7.8,12.1-17.5
				S344.6,315.1,337.9,315.1z"/>
		</g>
	</g>
</g>
</svg>
