<?xml version="1.0" encoding="utf-8"?>
<!-- Generator: Adobe Illustrator 24.1.2, SVG Export Plug-In . SVG Version: 6.00 Build 0)  -->
<svg version="1.0" xmlns="http://www.w3.org/2000/svg" xmlns:xlink="http://www.w3.org/1999/xlink" x="0px" y="0px"
	 viewBox="0 0 32 32" enable-background="new 0 0 32 32" xml:space="preserve">
<g id="circle">
	<circle id="hot" opacity="0.5" fill="#FFFFFF" cx="16.01" cy="15.94" r="15.88"/>
	<circle id="normal_1_" display="none" opacity="0.5" fill="#FFFFFF" cx="16.01" cy="15.94" r="15.88"/>
</g>
<g id="circle_copy" display="none">
	<circle opacity="0.4" fill="#010101" cx="16.01" cy="15.94" r="15.88"/>
	<circle display="inline" opacity="0.1" fill="#010101" cx="16.01" cy="15.94" r="15.88"/>
</g>
<g id="twitter">
	<g id="icon_1_">
		<path fill="#010101" d="M12.86,24.52c-1.89,0-3.74-0.53-5.35-1.54c-0.24-0.15-0.34-0.44-0.25-0.7c0.09-0.27,0.35-0.43,0.62-0.41
			c1.18,0.1,2.33-0.13,3.35-0.65c-1.11-0.38-2.17-1.16-2.58-2.36c-0.07-0.2-0.03-0.42,0.11-0.59c0.07-0.08,0.16-0.14,0.26-0.18
			c-0.21-0.16-0.4-0.33-0.57-0.51c-0.66-0.7-1-1.55-1-2.45v-0.25l0.19-0.16c0.19-0.17,0.39-0.14,0.57-0.11
			c0.05,0.01,0.1,0.01,0.17,0.02c-0.4-0.65-0.63-1.41-0.63-2.2c0-0.69,0.17-1.36,0.49-1.96c0.1-0.18,0.27-0.3,0.48-0.31
			c0.2-0.02,0.4,0.06,0.53,0.22c1.5,1.86,3.65,3.06,5.96,3.35c0-0.07,0-0.13,0-0.2c0-2.24,1.78-4.07,3.98-4.07
			c0.99,0,1.95,0.38,2.68,1.06c0.56-0.14,1.1-0.36,1.6-0.65c0.22-0.13,0.5-0.1,0.69,0.06c0.19,0.16,0.27,0.43,0.18,0.67
			c-0.07,0.21-0.17,0.41-0.27,0.6c0.22-0.04,0.44,0.04,0.58,0.21c0.17,0.21,0.18,0.5,0.03,0.73c-0.42,0.61-0.93,1.16-1.5,1.61
			c0,0.06,0,0.13,0,0.19c0,2.56-0.96,5.16-2.65,7.11c-0.92,1.07-2,1.91-3.24,2.49C15.94,24.2,14.45,24.52,12.86,24.52z M9.76,22.87
			c0.99,0.37,2.04,0.56,3.11,0.56c5.76,0,9.21-4.82,9.21-9.47c0-0.14,0-0.28-0.01-0.4c-0.01-0.2,0.08-0.39,0.24-0.51
			c0.13-0.1,0.25-0.2,0.37-0.3c-0.28,0.04-0.54-0.11-0.65-0.37c-0.11-0.26-0.02-0.56,0.21-0.72c0.06-0.04,0.11-0.08,0.16-0.13
			c-0.19,0.06-0.38,0.1-0.57,0.14c-0.21,0.04-0.42-0.03-0.56-0.18c-0.55-0.59-1.29-0.92-2.08-0.92c-1.59,0-2.88,1.33-2.88,2.97
			c0,0.21,0.02,0.42,0.06,0.62c0.04,0.18-0.01,0.38-0.13,0.52c-0.12,0.14-0.3,0.22-0.49,0.21c-2.57-0.15-5-1.3-6.79-3.19
			c-0.06,0.24-0.09,0.49-0.09,0.73c0,0.95,0.42,1.82,1.16,2.39c0.21,0.17,0.29,0.45,0.19,0.7c-0.1,0.25-0.35,0.4-0.62,0.38
			c-0.24-0.02-0.61-0.07-0.95-0.12c0.31,1.06,1.34,1.79,2.31,2.06c0.27,0.08,0.45,0.32,0.44,0.6c-0.01,0.28-0.21,0.52-0.48,0.57
			c-0.05,0.01-0.11,0.03-0.18,0.06c-0.16,0.06-0.37,0.13-0.61,0.13c-0.01,0-0.02,0-0.03,0c0.59,0.71,1.59,1.12,2.47,1.17
			c0.25,0.02,0.47,0.19,0.54,0.43c0.07,0.24-0.01,0.5-0.21,0.65C11.96,22.19,10.89,22.66,9.76,22.87z M9.15,19.16
			C9.15,19.16,9.15,19.16,9.15,19.16C9.15,19.16,9.15,19.16,9.15,19.16z"/>
	</g>
</g>
<g id="facebook_1_" display="none">
	<g id="rPZz0o.tif" display="inline">
		<g>
			<path d="M17.45,7.64c0.72,0,1.44,0,2.16,0c0.33,0.08,0.65,0.15,1.01,0.24c0,0.93,0,1.88,0,2.87c-0.54,0-1.05-0.06-1.53,0.02
				c-0.54,0.08-1.29-0.01-1.44,0.69c-0.19,0.87-0.2,1.79-0.29,2.76c1.17,0,2.15,0,3.22,0c-0.11,0.95-0.25,1.83-0.3,2.71
				c-0.03,0.46-0.15,0.65-0.63,0.63c-0.73-0.03-1.46-0.01-2.25-0.01c0,3,0,5.89,0,8.8c-1.12,0-2.19,0-3.34,0c0-2.94,0-5.85,0-8.78
				c-0.95,0-1.83,0-2.7,0c0-1.13,0-2.27,0-3.4c0.89,0,1.78,0,2.72,0c0-1-0.03-1.92,0.01-2.85c0.06-1.76,1.26-3.27,3.03-3.53
				C17.24,7.78,17.34,7.7,17.45,7.64z"/>
		</g>
	</g>
</g>
</svg>
